<?xml version="1.0" encoding="UTF-8" standalone="no"?>
<!DOCTYPE svg PUBLIC "-//W3C//DTD SVG 1.1//EN"
 "http://www.w3.org/Graphics/SVG/1.1/DTD/svg11.dtd">
<!-- Generated by graphviz version 2.42.3 (20191010.1750)
 -->
<!-- Title: reachable Pages: 1 -->
<svg width="2271pt" height="756pt"
 viewBox="0.00 0.00 2271.03 756.00" xmlns="http://www.w3.org/2000/svg" xmlns:xlink="http://www.w3.org/1999/xlink">
<g id="graph0" class="graph" transform="scale(1 1) rotate(0) translate(4 752)">
<title>reachable</title>
<polygon fill="white" stroke="transparent" points="-4,4 -4,-752 2267.03,-752 2267.03,4 -4,4"/>
<!-- tiff&#45;4.3.0p0 -->
<g id="node1" class="node">
<title>tiff&#45;4.3.0p0</title>
<ellipse fill="none" stroke="black" cx="1602.58" cy="-592" rx="51.99" ry="18"/>
<text text-anchor="middle" x="1602.58" y="-588.3" font-family="Helvetica,Arial,sans-serif" font-size="14.00">tiff&#45;4.3.0p0</text>
</g>
<!-- xz&#45;5.2.5p2 -->
<g id="node2" class="node">
<title>xz&#45;5.2.5p2</title>
<ellipse fill="none" stroke="black" cx="1988.5" cy="-546" rx="51.99" ry="18"/>
<text text-anchor="middle" x="1988.5" y="-542.3" font-family="Helvetica,Arial,sans-serif" font-size="14.00">xz&#45;5.2.5p2</text>
</g>
<!-- tiff&#45;4.3.0p0&#45;&gt;xz&#45;5.2.5p2 -->
<g id="edge1" class="edge">
<title>tiff&#45;4.3.0p0&#45;&gt;xz&#45;5.2.5p2</title>
<path fill="none" stroke="black" d="M1641.68,-579.97C1660.51,-574.51 1683.69,-568.5 1704.87,-565 1780.51,-552.5 1868.83,-548.18 1926.34,-546.71"/>
<polygon fill="black" stroke="black" points="1926.45,-550.21 1936.36,-546.47 1926.28,-543.21 1926.45,-550.21"/>
</g>
<!-- zstd&#45;1.5.2 -->
<g id="node3" class="node">
<title>zstd&#45;1.5.2</title>
<ellipse fill="none" stroke="black" cx="1778.97" cy="-500" rx="49.29" ry="18"/>
<text text-anchor="middle" x="1778.97" y="-496.3" font-family="Helvetica,Arial,sans-serif" font-size="14.00">zstd&#45;1.5.2</text>
</g>
<!-- tiff&#45;4.3.0p0&#45;&gt;zstd&#45;1.5.2 -->
<g id="edge2" class="edge">
<title>tiff&#45;4.3.0p0&#45;&gt;zstd&#45;1.5.2</title>
<path fill="none" stroke="black" d="M1640.29,-579.45C1649.93,-575.46 1660.08,-570.6 1668.87,-565 1687.18,-553.34 1686.69,-543.85 1704.87,-532 1713.76,-526.21 1723.86,-521.03 1733.67,-516.6"/>
<polygon fill="black" stroke="black" points="1735.14,-519.78 1742.92,-512.59 1732.36,-513.35 1735.14,-519.78"/>
</g>
<!-- jpeg&#45;2.1.3v0 -->
<g id="node4" class="node">
<title>jpeg&#45;2.1.3v0</title>
<ellipse fill="none" stroke="black" cx="1778.97" cy="-592" rx="59.29" ry="18"/>
<text text-anchor="middle" x="1778.97" y="-588.3" font-family="Helvetica,Arial,sans-serif" font-size="14.00">jpeg&#45;2.1.3v0</text>
</g>
<!-- tiff&#45;4.3.0p0&#45;&gt;jpeg&#45;2.1.3v0 -->
<g id="edge3" class="edge">
<title>tiff&#45;4.3.0p0&#45;&gt;jpeg&#45;2.1.3v0</title>
<path fill="none" stroke="black" d="M1654.96,-592C1672,-592 1691.26,-592 1709.39,-592"/>
<polygon fill="black" stroke="black" points="1709.61,-595.5 1719.61,-592 1709.61,-588.5 1709.61,-595.5"/>
</g>
<!-- zstd&#45;1.5.2&#45;&gt;xz&#45;5.2.5p2 -->
<g id="edge4" class="edge">
<title>zstd&#45;1.5.2&#45;&gt;xz&#45;5.2.5p2</title>
<path fill="none" stroke="black" d="M1821.47,-509.2C1853.87,-516.38 1899.14,-526.41 1934.22,-534.19"/>
<polygon fill="black" stroke="black" points="1933.77,-537.67 1944.29,-536.42 1935.28,-530.84 1933.77,-537.67"/>
</g>
<!-- lz4&#45;1.9.3p0 -->
<g id="node5" class="node">
<title>lz4&#45;1.9.3p0</title>
<ellipse fill="none" stroke="black" cx="1988.5" cy="-492" rx="53.89" ry="18"/>
<text text-anchor="middle" x="1988.5" y="-488.3" font-family="Helvetica,Arial,sans-serif" font-size="14.00">lz4&#45;1.9.3p0</text>
</g>
<!-- zstd&#45;1.5.2&#45;&gt;lz4&#45;1.9.3p0 -->
<g id="edge5" class="edge">
<title>zstd&#45;1.5.2&#45;&gt;lz4&#45;1.9.3p0</title>
<path fill="none" stroke="black" d="M1828.1,-498.14C1856.83,-497.04 1893.62,-495.62 1924.63,-494.42"/>
<polygon fill="black" stroke="black" points="1925.04,-497.91 1934.9,-494.03 1924.77,-490.92 1925.04,-497.91"/>
</g>
<!-- libxml&#45;2.9.13 -->
<g id="node6" class="node">
<title>libxml&#45;2.9.13</title>
<ellipse fill="none" stroke="black" cx="1778.97" cy="-646" rx="61.19" ry="18"/>
<text text-anchor="middle" x="1778.97" y="-642.3" font-family="Helvetica,Arial,sans-serif" font-size="14.00">libxml&#45;2.9.13</text>
</g>
<!-- libxml&#45;2.9.13&#45;&gt;xz&#45;5.2.5p2 -->
<g id="edge7" class="edge">
<title>libxml&#45;2.9.13&#45;&gt;xz&#45;5.2.5p2</title>
<path fill="none" stroke="black" d="M1819.84,-632.45C1830.74,-628.43 1842.47,-623.8 1853.06,-619 1887.68,-603.3 1925.61,-582.34 1952.33,-566.91"/>
<polygon fill="black" stroke="black" points="1954.41,-569.75 1961.29,-561.7 1950.89,-563.7 1954.41,-569.75"/>
</g>
<!-- libiconv&#45;1.16p0 -->
<g id="node7" class="node">
<title>libiconv&#45;1.16p0</title>
<ellipse fill="none" stroke="black" cx="2193.49" cy="-474" rx="69.59" ry="18"/>
<text text-anchor="middle" x="2193.49" y="-470.3" font-family="Helvetica,Arial,sans-serif" font-size="14.00">libiconv&#45;1.16p0</text>
</g>
<!-- libxml&#45;2.9.13&#45;&gt;libiconv&#45;1.16p0 -->
<g id="edge6" class="edge">
<title>libxml&#45;2.9.13&#45;&gt;libiconv&#45;1.16p0</title>
<path fill="none" stroke="black" d="M1838.23,-641.29C1902.66,-634.08 2007.94,-616.24 2087.94,-573 2121.83,-554.69 2152.79,-522.56 2172.08,-499.87"/>
<polygon fill="black" stroke="black" points="2174.94,-501.91 2178.64,-491.99 2169.56,-497.44 2174.94,-501.91"/>
</g>
<!-- python&#45;3.9.12p0 -->
<g id="node8" class="node">
<title>python&#45;3.9.12p0</title>
<ellipse fill="none" stroke="black" cx="1778.97" cy="-387" rx="74.19" ry="18"/>
<text text-anchor="middle" x="1778.97" y="-383.3" font-family="Helvetica,Arial,sans-serif" font-size="14.00">python&#45;3.9.12p0</text>
</g>
<!-- python&#45;3.9.12p0&#45;&gt;xz&#45;5.2.5p2 -->
<g id="edge9" class="edge">
<title>python&#45;3.9.12p0&#45;&gt;xz&#45;5.2.5p2</title>
<path fill="none" stroke="black" d="M1795.3,-404.61C1810.24,-421.87 1833.49,-449.01 1853.06,-473 1869.47,-493.12 1867.45,-504.62 1889.06,-519 1901.35,-527.18 1916.06,-532.89 1930.32,-536.88"/>
<polygon fill="black" stroke="black" points="1929.52,-540.29 1940.08,-539.37 1931.26,-533.51 1929.52,-540.29"/>
</g>
<!-- bzip2&#45;1.0.8p0 -->
<g id="node9" class="node">
<title>bzip2&#45;1.0.8p0</title>
<ellipse fill="none" stroke="black" cx="1988.5" cy="-383" rx="63.89" ry="18"/>
<text text-anchor="middle" x="1988.5" y="-379.3" font-family="Helvetica,Arial,sans-serif" font-size="14.00">bzip2&#45;1.0.8p0</text>
</g>
<!-- python&#45;3.9.12p0&#45;&gt;bzip2&#45;1.0.8p0 -->
<g id="edge8" class="edge">
<title>python&#45;3.9.12p0&#45;&gt;bzip2&#45;1.0.8p0</title>
<path fill="none" stroke="black" d="M1852.84,-385.6C1872.93,-385.21 1894.71,-384.79 1914.78,-384.4"/>
<polygon fill="black" stroke="black" points="1914.86,-387.9 1924.79,-384.21 1914.73,-380.9 1914.86,-387.9"/>
</g>
<!-- sqlite3&#45;3.38.3 -->
<g id="node10" class="node">
<title>sqlite3&#45;3.38.3</title>
<ellipse fill="none" stroke="black" cx="1988.5" cy="-192" rx="63.89" ry="18"/>
<text text-anchor="middle" x="1988.5" y="-188.3" font-family="Helvetica,Arial,sans-serif" font-size="14.00">sqlite3&#45;3.38.3</text>
</g>
<!-- python&#45;3.9.12p0&#45;&gt;sqlite3&#45;3.38.3 -->
<g id="edge10" class="edge">
<title>python&#45;3.9.12p0&#45;&gt;sqlite3&#45;3.38.3</title>
<path fill="none" stroke="black" d="M1829.56,-373.79C1837.94,-370.18 1846.14,-365.65 1853.06,-360 1876.56,-340.81 1870.88,-326.29 1889.06,-302 1912.18,-271.12 1942.15,-238.53 1962.91,-216.91"/>
<polygon fill="black" stroke="black" points="1965.68,-219.09 1970.12,-209.47 1960.65,-214.22 1965.68,-219.09"/>
</g>
<!-- gettext&#45;runtime&#45;0.21p1 -->
<g id="node11" class="node">
<title>gettext&#45;runtime&#45;0.21p1</title>
<ellipse fill="none" stroke="black" cx="1988.5" cy="-329" rx="99.38" ry="18"/>
<text text-anchor="middle" x="1988.5" y="-325.3" font-family="Helvetica,Arial,sans-serif" font-size="14.00">gettext&#45;runtime&#45;0.21p1</text>
</g>
<!-- python&#45;3.9.12p0&#45;&gt;gettext&#45;runtime&#45;0.21p1 -->
<g id="edge11" class="edge">
<title>python&#45;3.9.12p0&#45;&gt;gettext&#45;runtime&#45;0.21p1</title>
<path fill="none" stroke="black" d="M1827.73,-373.32C1846.8,-367.89 1868.96,-361.61 1889.06,-356 1899.95,-352.96 1911.53,-349.76 1922.78,-346.66"/>
<polygon fill="black" stroke="black" points="1923.83,-350 1932.55,-343.98 1921.98,-343.25 1923.83,-350"/>
</g>
<!-- libffi&#45;3.3p1 -->
<g id="node12" class="node">
<title>libffi&#45;3.3p1</title>
<ellipse fill="none" stroke="black" cx="1988.5" cy="-437" rx="51.19" ry="18"/>
<text text-anchor="middle" x="1988.5" y="-433.3" font-family="Helvetica,Arial,sans-serif" font-size="14.00">libffi&#45;3.3p1</text>
</g>
<!-- python&#45;3.9.12p0&#45;&gt;libffi&#45;3.3p1 -->
<g id="edge12" class="edge">
<title>python&#45;3.9.12p0&#45;&gt;libffi&#45;3.3p1</title>
<path fill="none" stroke="black" d="M1832.34,-399.62C1863.98,-407.24 1904.14,-416.92 1935.68,-424.52"/>
<polygon fill="black" stroke="black" points="1935.06,-427.96 1945.6,-426.9 1936.7,-421.16 1935.06,-427.96"/>
</g>
<!-- gettext&#45;runtime&#45;0.21p1&#45;&gt;libiconv&#45;1.16p0 -->
<g id="edge20" class="edge">
<title>gettext&#45;runtime&#45;0.21p1&#45;&gt;libiconv&#45;1.16p0</title>
<path fill="none" stroke="black" d="M2057.35,-342.01C2068.03,-345.62 2078.62,-350.19 2087.94,-356 2125.52,-379.39 2157.34,-420.32 2175.68,-447.29"/>
<polygon fill="black" stroke="black" points="2172.93,-449.47 2181.38,-455.86 2178.76,-445.59 2172.93,-449.47"/>
</g>
<!-- adwaita&#45;icon&#45;theme&#45;42.0 -->
<g id="node13" class="node">
<title>adwaita&#45;icon&#45;theme&#45;42.0</title>
<ellipse fill="none" stroke="black" cx="433.37" cy="-504" rx="107.78" ry="18"/>
<text text-anchor="middle" x="433.37" y="-500.3" font-family="Helvetica,Arial,sans-serif" font-size="14.00">adwaita&#45;icon&#45;theme&#45;42.0</text>
</g>
<!-- librsvg&#45;2.54.1 -->
<g id="node14" class="node">
<title>librsvg&#45;2.54.1</title>
<ellipse fill="none" stroke="black" cx="707.25" cy="-504" rx="63.89" ry="18"/>
<text text-anchor="middle" x="707.25" y="-500.3" font-family="Helvetica,Arial,sans-serif" font-size="14.00">librsvg&#45;2.54.1</text>
</g>
<!-- adwaita&#45;icon&#45;theme&#45;42.0&#45;&gt;librsvg&#45;2.54.1 -->
<g id="edge13" class="edge">
<title>adwaita&#45;icon&#45;theme&#45;42.0&#45;&gt;librsvg&#45;2.54.1</title>
<path fill="none" stroke="black" d="M541.43,-504C572.14,-504 604.9,-504 633.06,-504"/>
<polygon fill="black" stroke="black" points="633.22,-507.5 643.22,-504 633.22,-500.5 633.22,-507.5"/>
</g>
<!-- gtk&#45;update&#45;icon&#45;cache&#45;3.24.33 -->
<g id="node15" class="node">
<title>gtk&#45;update&#45;icon&#45;cache&#45;3.24.33</title>
<ellipse fill="none" stroke="black" cx="707.25" cy="-558" rx="129.98" ry="18"/>
<text text-anchor="middle" x="707.25" y="-554.3" font-family="Helvetica,Arial,sans-serif" font-size="14.00">gtk&#45;update&#45;icon&#45;cache&#45;3.24.33</text>
</g>
<!-- adwaita&#45;icon&#45;theme&#45;42.0&#45;&gt;gtk&#45;update&#45;icon&#45;cache&#45;3.24.33 -->
<g id="edge14" class="edge">
<title>adwaita&#45;icon&#45;theme&#45;42.0&#45;&gt;gtk&#45;update&#45;icon&#45;cache&#45;3.24.33</title>
<path fill="none" stroke="black" d="M503.68,-517.77C539.64,-524.91 583.86,-533.69 621.81,-541.23"/>
<polygon fill="black" stroke="black" points="621.33,-544.7 631.82,-543.22 622.69,-537.84 621.33,-544.7"/>
</g>
<!-- librsvg&#45;2.54.1&#45;&gt;libxml&#45;2.9.13 -->
<g id="edge15" class="edge">
<title>librsvg&#45;2.54.1&#45;&gt;libxml&#45;2.9.13</title>
<path fill="none" stroke="black" d="M762.84,-512.94C786.04,-517.38 813.23,-523.43 837.24,-531 919.54,-556.97 1107.9,-684 1194.21,-684 1194.21,-684 1194.21,-684 1406.39,-684 1515.55,-684 1641.81,-667.57 1715.49,-656.32"/>
<polygon fill="black" stroke="black" points="1716.18,-659.75 1725.53,-654.77 1715.11,-652.83 1716.18,-659.75"/>
</g>
<!-- gdk&#45;pixbuf&#45;2.42.8 -->
<g id="node16" class="node">
<title>gdk&#45;pixbuf&#45;2.42.8</title>
<ellipse fill="none" stroke="black" cx="1195.21" cy="-554" rx="78.79" ry="18"/>
<text text-anchor="middle" x="1195.21" y="-550.3" font-family="Helvetica,Arial,sans-serif" font-size="14.00">gdk&#45;pixbuf&#45;2.42.8</text>
</g>
<!-- librsvg&#45;2.54.1&#45;&gt;gdk&#45;pixbuf&#45;2.42.8 -->
<g id="edge16" class="edge">
<title>librsvg&#45;2.54.1&#45;&gt;gdk&#45;pixbuf&#45;2.42.8</title>
<path fill="none" stroke="black" d="M767.35,-510.08C853.83,-518.98 1015.16,-535.58 1112.81,-545.62"/>
<polygon fill="black" stroke="black" points="1112.62,-549.12 1122.93,-546.67 1113.34,-542.16 1112.62,-549.12"/>
</g>
<!-- pango&#45;1.50.7 -->
<g id="node17" class="node">
<title>pango&#45;1.50.7</title>
<ellipse fill="none" stroke="black" cx="976.58" cy="-412" rx="62.29" ry="18"/>
<text text-anchor="middle" x="976.58" y="-408.3" font-family="Helvetica,Arial,sans-serif" font-size="14.00">pango&#45;1.50.7</text>
</g>
<!-- librsvg&#45;2.54.1&#45;&gt;pango&#45;1.50.7 -->
<g id="edge17" class="edge">
<title>librsvg&#45;2.54.1&#45;&gt;pango&#45;1.50.7</title>
<path fill="none" stroke="black" d="M748.27,-490.23C795.75,-473.89 874.92,-446.64 926.17,-429"/>
<polygon fill="black" stroke="black" points="927.4,-432.28 935.72,-425.72 925.12,-425.66 927.4,-432.28"/>
</g>
<!-- gtk&#45;update&#45;icon&#45;cache&#45;3.24.33&#45;&gt;gdk&#45;pixbuf&#45;2.42.8 -->
<g id="edge18" class="edge">
<title>gtk&#45;update&#45;icon&#45;cache&#45;3.24.33&#45;&gt;gdk&#45;pixbuf&#45;2.42.8</title>
<path fill="none" stroke="black" d="M837.2,-556.94C922.06,-556.24 1030.93,-555.34 1106.01,-554.73"/>
<polygon fill="black" stroke="black" points="1106.41,-558.22 1116.38,-554.64 1106.35,-551.22 1106.41,-558.22"/>
</g>
<!-- hicolor&#45;icon&#45;theme&#45;0.17 -->
<g id="node18" class="node">
<title>hicolor&#45;icon&#45;theme&#45;0.17</title>
<ellipse fill="none" stroke="black" cx="976.58" cy="-730" rx="103.18" ry="18"/>
<text text-anchor="middle" x="976.58" y="-726.3" font-family="Helvetica,Arial,sans-serif" font-size="14.00">hicolor&#45;icon&#45;theme&#45;0.17</text>
</g>
<!-- gtk&#45;update&#45;icon&#45;cache&#45;3.24.33&#45;&gt;hicolor&#45;icon&#45;theme&#45;0.17 -->
<g id="edge19" class="edge">
<title>gtk&#45;update&#45;icon&#45;cache&#45;3.24.33&#45;&gt;hicolor&#45;icon&#45;theme&#45;0.17</title>
<path fill="none" stroke="black" d="M737.51,-575.58C764.94,-592.84 806.25,-620.89 837.24,-651 856.11,-669.33 851.67,-682.92 873.24,-698 881.62,-703.86 891.12,-708.68 900.87,-712.63"/>
<polygon fill="black" stroke="black" points="899.67,-715.92 910.26,-716.17 902.13,-709.37 899.67,-715.92"/>
</g>
<!-- gdk&#45;pixbuf&#45;2.42.8&#45;&gt;tiff&#45;4.3.0p0 -->
<g id="edge54" class="edge">
<title>gdk&#45;pixbuf&#45;2.42.8&#45;&gt;tiff&#45;4.3.0p0</title>
<path fill="none" stroke="black" d="M1268.21,-560.75C1346.17,-568.06 1469.09,-579.58 1541.88,-586.4"/>
<polygon fill="black" stroke="black" points="1541.96,-589.93 1552.24,-587.37 1542.61,-582.96 1541.96,-589.93"/>
</g>
<!-- glib2&#45;2.72.1 -->
<g id="node22" class="node">
<title>glib2&#45;2.72.1</title>
<ellipse fill="none" stroke="black" cx="1602.58" cy="-333" rx="56.59" ry="18"/>
<text text-anchor="middle" x="1602.58" y="-329.3" font-family="Helvetica,Arial,sans-serif" font-size="14.00">glib2&#45;2.72.1</text>
</g>
<!-- gdk&#45;pixbuf&#45;2.42.8&#45;&gt;glib2&#45;2.72.1 -->
<g id="edge55" class="edge">
<title>gdk&#45;pixbuf&#45;2.42.8&#45;&gt;glib2&#45;2.72.1</title>
<path fill="none" stroke="black" d="M1218.05,-536.53C1240.1,-519.76 1275.78,-494.99 1310.5,-481 1390.29,-448.85 1425.3,-485.15 1500.29,-443 1536.52,-422.63 1567.06,-384.71 1584.85,-359.16"/>
<polygon fill="black" stroke="black" points="1587.88,-360.93 1590.6,-350.69 1582.08,-357 1587.88,-360.93"/>
</g>
<!-- png&#45;1.6.37 -->
<g id="node28" class="node">
<title>png&#45;1.6.37</title>
<ellipse fill="none" stroke="black" cx="1602.58" cy="-538" rx="52.79" ry="18"/>
<text text-anchor="middle" x="1602.58" y="-534.3" font-family="Helvetica,Arial,sans-serif" font-size="14.00">png&#45;1.6.37</text>
</g>
<!-- gdk&#45;pixbuf&#45;2.42.8&#45;&gt;png&#45;1.6.37 -->
<g id="edge53" class="edge">
<title>gdk&#45;pixbuf&#45;2.42.8&#45;&gt;png&#45;1.6.37</title>
<path fill="none" stroke="black" d="M1272.93,-550.97C1350.38,-547.91 1468.48,-543.25 1540.01,-540.43"/>
<polygon fill="black" stroke="black" points="1540.36,-543.92 1550.22,-540.03 1540.09,-536.92 1540.36,-543.92"/>
</g>
<!-- shared&#45;mime&#45;info&#45;2.2 -->
<g id="node30" class="node">
<title>shared&#45;mime&#45;info&#45;2.2</title>
<ellipse fill="none" stroke="black" cx="1405.39" cy="-638" rx="94.78" ry="18"/>
<text text-anchor="middle" x="1405.39" y="-634.3" font-family="Helvetica,Arial,sans-serif" font-size="14.00">shared&#45;mime&#45;info&#45;2.2</text>
</g>
<!-- gdk&#45;pixbuf&#45;2.42.8&#45;&gt;shared&#45;mime&#45;info&#45;2.2 -->
<g id="edge56" class="edge">
<title>gdk&#45;pixbuf&#45;2.42.8&#45;&gt;shared&#45;mime&#45;info&#45;2.2</title>
<path fill="none" stroke="black" d="M1229.84,-570.36C1252.41,-581.07 1282.95,-595.07 1310.5,-606 1321.88,-610.52 1334.18,-614.99 1346.02,-619.1"/>
<polygon fill="black" stroke="black" points="1345.22,-622.53 1355.81,-622.46 1347.49,-615.91 1345.22,-622.53"/>
</g>
<!-- pango&#45;1.50.7&#45;&gt;glib2&#45;2.72.1 -->
<g id="edge59" class="edge">
<title>pango&#45;1.50.7&#45;&gt;glib2&#45;2.72.1</title>
<path fill="none" stroke="black" d="M1030.03,-402.6C1055.85,-398.15 1087.46,-392.95 1115.92,-389 1286.18,-365.34 1329.62,-366.5 1500.29,-346 1513.07,-344.47 1526.74,-342.76 1539.78,-341.09"/>
<polygon fill="black" stroke="black" points="1540.6,-344.52 1550.07,-339.78 1539.71,-337.57 1540.6,-344.52"/>
</g>
<!-- harfbuzz&#45;4.2.1 -->
<g id="node36" class="node">
<title>harfbuzz&#45;4.2.1</title>
<ellipse fill="none" stroke="black" cx="1195.21" cy="-470" rx="66.89" ry="18"/>
<text text-anchor="middle" x="1195.21" y="-466.3" font-family="Helvetica,Arial,sans-serif" font-size="14.00">harfbuzz&#45;4.2.1</text>
</g>
<!-- pango&#45;1.50.7&#45;&gt;harfbuzz&#45;4.2.1 -->
<g id="edge61" class="edge">
<title>pango&#45;1.50.7&#45;&gt;harfbuzz&#45;4.2.1</title>
<path fill="none" stroke="black" d="M1022.99,-424.16C1056.22,-433.06 1101.53,-445.19 1137.2,-454.74"/>
<polygon fill="black" stroke="black" points="1136.42,-458.15 1146.98,-457.36 1138.23,-451.39 1136.42,-458.15"/>
</g>
<!-- fribidi&#45;1.0.12 -->
<g id="node38" class="node">
<title>fribidi&#45;1.0.12</title>
<ellipse fill="none" stroke="black" cx="1195.21" cy="-416" rx="59.29" ry="18"/>
<text text-anchor="middle" x="1195.21" y="-412.3" font-family="Helvetica,Arial,sans-serif" font-size="14.00">fribidi&#45;1.0.12</text>
</g>
<!-- pango&#45;1.50.7&#45;&gt;fribidi&#45;1.0.12 -->
<g id="edge60" class="edge">
<title>pango&#45;1.50.7&#45;&gt;fribidi&#45;1.0.12</title>
<path fill="none" stroke="black" d="M1039.08,-413.14C1066.15,-413.64 1098.05,-414.22 1125.87,-414.74"/>
<polygon fill="black" stroke="black" points="1125.85,-418.24 1135.91,-414.92 1125.98,-411.24 1125.85,-418.24"/>
</g>
<!-- at&#45;spi2&#45;atk&#45;2.38.0 -->
<g id="node19" class="node">
<title>at&#45;spi2&#45;atk&#45;2.38.0</title>
<ellipse fill="none" stroke="black" cx="1195.21" cy="-286" rx="79.09" ry="18"/>
<text text-anchor="middle" x="1195.21" y="-282.3" font-family="Helvetica,Arial,sans-serif" font-size="14.00">at&#45;spi2&#45;atk&#45;2.38.0</text>
</g>
<!-- atk&#45;2.38.0 -->
<g id="node20" class="node">
<title>atk&#45;2.38.0</title>
<ellipse fill="none" stroke="black" cx="1405.39" cy="-286" rx="50.09" ry="18"/>
<text text-anchor="middle" x="1405.39" y="-282.3" font-family="Helvetica,Arial,sans-serif" font-size="14.00">atk&#45;2.38.0</text>
</g>
<!-- at&#45;spi2&#45;atk&#45;2.38.0&#45;&gt;atk&#45;2.38.0 -->
<g id="edge21" class="edge">
<title>at&#45;spi2&#45;atk&#45;2.38.0&#45;&gt;atk&#45;2.38.0</title>
<path fill="none" stroke="black" d="M1274.62,-286C1298,-286 1323.23,-286 1345.17,-286"/>
<polygon fill="black" stroke="black" points="1345.32,-289.5 1355.32,-286 1345.32,-282.5 1345.32,-289.5"/>
</g>
<!-- at&#45;spi2&#45;core&#45;2.44.1 -->
<g id="node21" class="node">
<title>at&#45;spi2&#45;core&#45;2.44.1</title>
<ellipse fill="none" stroke="black" cx="1405.39" cy="-194" rx="84.49" ry="18"/>
<text text-anchor="middle" x="1405.39" y="-190.3" font-family="Helvetica,Arial,sans-serif" font-size="14.00">at&#45;spi2&#45;core&#45;2.44.1</text>
</g>
<!-- at&#45;spi2&#45;atk&#45;2.38.0&#45;&gt;at&#45;spi2&#45;core&#45;2.44.1 -->
<g id="edge22" class="edge">
<title>at&#45;spi2&#45;atk&#45;2.38.0&#45;&gt;at&#45;spi2&#45;core&#45;2.44.1</title>
<path fill="none" stroke="black" d="M1232.47,-269.97C1267.48,-254.5 1320.63,-231.02 1358.55,-214.26"/>
<polygon fill="black" stroke="black" points="1360.12,-217.39 1367.85,-210.15 1357.29,-210.99 1360.12,-217.39"/>
</g>
<!-- atk&#45;2.38.0&#45;&gt;glib2&#45;2.72.1 -->
<g id="edge23" class="edge">
<title>atk&#45;2.38.0&#45;&gt;glib2&#45;2.72.1</title>
<path fill="none" stroke="black" d="M1447.31,-295.85C1476.26,-302.82 1515.39,-312.25 1547,-319.86"/>
<polygon fill="black" stroke="black" points="1546.43,-323.32 1556.98,-322.26 1548.07,-316.52 1546.43,-323.32"/>
</g>
<!-- at&#45;spi2&#45;core&#45;2.44.1&#45;&gt;glib2&#45;2.72.1 -->
<g id="edge24" class="edge">
<title>at&#45;spi2&#45;core&#45;2.44.1&#45;&gt;glib2&#45;2.72.1</title>
<path fill="none" stroke="black" d="M1461.09,-207.68C1474.5,-212.35 1488.4,-218.37 1500.29,-226 1534.18,-247.75 1564.69,-283.22 1583.17,-307.3"/>
<polygon fill="black" stroke="black" points="1580.38,-309.42 1589.19,-315.31 1585.97,-305.21 1580.38,-309.42"/>
</g>
<!-- dbus&#45;1.14.0v0 -->
<g id="node23" class="node">
<title>dbus&#45;1.14.0v0</title>
<ellipse fill="none" stroke="black" cx="1602.58" cy="-194" rx="66.09" ry="18"/>
<text text-anchor="middle" x="1602.58" y="-190.3" font-family="Helvetica,Arial,sans-serif" font-size="14.00">dbus&#45;1.14.0v0</text>
</g>
<!-- at&#45;spi2&#45;core&#45;2.44.1&#45;&gt;dbus&#45;1.14.0v0 -->
<g id="edge25" class="edge">
<title>at&#45;spi2&#45;core&#45;2.44.1&#45;&gt;dbus&#45;1.14.0v0</title>
<path fill="none" stroke="black" d="M1490.02,-194C1501.94,-194 1514.15,-194 1525.91,-194"/>
<polygon fill="black" stroke="black" points="1526.11,-197.5 1536.11,-194 1526.11,-190.5 1526.11,-197.5"/>
</g>
<!-- glib2&#45;2.72.1&#45;&gt;python&#45;3.9.12p0 -->
<g id="edge26" class="edge">
<title>glib2&#45;2.72.1&#45;&gt;python&#45;3.9.12p0</title>
<path fill="none" stroke="black" d="M1644.03,-345.52C1667.49,-352.79 1697.37,-362.04 1722.95,-369.96"/>
<polygon fill="black" stroke="black" points="1721.93,-373.31 1732.52,-372.93 1724,-366.63 1721.93,-373.31"/>
</g>
<!-- glib2&#45;2.72.1&#45;&gt;gettext&#45;runtime&#45;0.21p1 -->
<g id="edge27" class="edge">
<title>glib2&#45;2.72.1&#45;&gt;gettext&#45;runtime&#45;0.21p1</title>
<path fill="none" stroke="black" d="M1642.55,-320.07C1661.18,-314.54 1683.94,-308.74 1704.87,-306 1770.18,-297.45 1787.44,-300.43 1853.06,-306 1872.35,-307.64 1893.03,-310.58 1912.24,-313.82"/>
<polygon fill="black" stroke="black" points="1911.69,-317.27 1922.14,-315.53 1912.89,-310.37 1911.69,-317.27"/>
</g>
<!-- glib2&#45;2.72.1&#45;&gt;libffi&#45;3.3p1 -->
<g id="edge28" class="edge">
<title>glib2&#45;2.72.1&#45;&gt;libffi&#45;3.3p1</title>
<path fill="none" stroke="black" d="M1619.12,-350.53C1637.47,-369.88 1669.92,-400.13 1704.87,-414 1777.82,-442.96 1869.53,-444.77 1928.33,-442.01"/>
<polygon fill="black" stroke="black" points="1928.75,-445.49 1938.56,-441.47 1928.39,-438.5 1928.75,-445.49"/>
</g>
<!-- pcre&#45;8.44 -->
<g id="node24" class="node">
<title>pcre&#45;8.44</title>
<ellipse fill="none" stroke="black" cx="1778.97" cy="-333" rx="48.19" ry="18"/>
<text text-anchor="middle" x="1778.97" y="-329.3" font-family="Helvetica,Arial,sans-serif" font-size="14.00">pcre&#45;8.44</text>
</g>
<!-- glib2&#45;2.72.1&#45;&gt;pcre&#45;8.44 -->
<g id="edge29" class="edge">
<title>glib2&#45;2.72.1&#45;&gt;pcre&#45;8.44</title>
<path fill="none" stroke="black" d="M1659.24,-333C1678.84,-333 1700.91,-333 1720.65,-333"/>
<polygon fill="black" stroke="black" points="1720.74,-336.5 1730.74,-333 1720.74,-329.5 1720.74,-336.5"/>
</g>
<!-- dconf&#45;0.40.0 -->
<g id="node25" class="node">
<title>dconf&#45;0.40.0</title>
<ellipse fill="none" stroke="black" cx="707.25" cy="-242" rx="59.59" ry="18"/>
<text text-anchor="middle" x="707.25" y="-238.3" font-family="Helvetica,Arial,sans-serif" font-size="14.00">dconf&#45;0.40.0</text>
</g>
<!-- dconf&#45;0.40.0&#45;&gt;glib2&#45;2.72.1 -->
<g id="edge30" class="edge">
<title>dconf&#45;0.40.0&#45;&gt;glib2&#45;2.72.1</title>
<path fill="none" stroke="black" d="M766.19,-238.78C925.02,-230.65 1364.54,-213.08 1500.29,-259 1530.02,-269.06 1558.39,-291.25 1577.49,-308.72"/>
<polygon fill="black" stroke="black" points="1575.16,-311.33 1584.85,-315.63 1579.96,-306.23 1575.16,-311.33"/>
</g>
<!-- desktop&#45;file&#45;utils&#45;0.26 -->
<g id="node26" class="node">
<title>desktop&#45;file&#45;utils&#45;0.26</title>
<ellipse fill="none" stroke="black" cx="433.37" cy="-156" rx="94.48" ry="18"/>
<text text-anchor="middle" x="433.37" y="-152.3" font-family="Helvetica,Arial,sans-serif" font-size="14.00">desktop&#45;file&#45;utils&#45;0.26</text>
</g>
<!-- desktop&#45;file&#45;utils&#45;0.26&#45;&gt;glib2&#45;2.72.1 -->
<g id="edge31" class="edge">
<title>desktop&#45;file&#45;utils&#45;0.26&#45;&gt;glib2&#45;2.72.1</title>
<path fill="none" stroke="black" d="M527.26,-153.79C635.06,-151.42 818.18,-148 975.58,-148 975.58,-148 975.58,-148 1196.21,-148 1331.62,-148 1384.33,-97.07 1500.29,-167 1507.15,-171.14 1559.58,-260.5 1586.19,-306.35"/>
<polygon fill="black" stroke="black" points="1583.25,-308.27 1591.3,-315.17 1589.31,-304.76 1583.25,-308.27"/>
</g>
<!-- cairo&#45;1.17.6 -->
<g id="node27" class="node">
<title>cairo&#45;1.17.6</title>
<ellipse fill="none" stroke="black" cx="1405.39" cy="-508" rx="57.39" ry="18"/>
<text text-anchor="middle" x="1405.39" y="-504.3" font-family="Helvetica,Arial,sans-serif" font-size="14.00">cairo&#45;1.17.6</text>
</g>
<!-- cairo&#45;1.17.6&#45;&gt;glib2&#45;2.72.1 -->
<g id="edge33" class="edge">
<title>cairo&#45;1.17.6&#45;&gt;glib2&#45;2.72.1</title>
<path fill="none" stroke="black" d="M1453.61,-498.17C1469.49,-493.3 1486.63,-486.2 1500.29,-476 1541.6,-445.15 1572.6,-392.48 1588.84,-360.39"/>
<polygon fill="black" stroke="black" points="1592.12,-361.66 1593.41,-351.15 1585.84,-358.57 1592.12,-361.66"/>
</g>
<!-- cairo&#45;1.17.6&#45;&gt;png&#45;1.6.37 -->
<g id="edge32" class="edge">
<title>cairo&#45;1.17.6&#45;&gt;png&#45;1.6.37</title>
<path fill="none" stroke="black" d="M1457.17,-515.8C1483.83,-519.9 1516.59,-524.94 1544.17,-529.18"/>
<polygon fill="black" stroke="black" points="1543.66,-532.64 1554.08,-530.7 1544.73,-525.72 1543.66,-532.64"/>
</g>
<!-- lzo2&#45;2.10p2 -->
<g id="node29" class="node">
<title>lzo2&#45;2.10p2</title>
<ellipse fill="none" stroke="black" cx="1602.58" cy="-484" rx="56.59" ry="18"/>
<text text-anchor="middle" x="1602.58" y="-480.3" font-family="Helvetica,Arial,sans-serif" font-size="14.00">lzo2&#45;2.10p2</text>
</g>
<!-- cairo&#45;1.17.6&#45;&gt;lzo2&#45;2.10p2 -->
<g id="edge34" class="edge">
<title>cairo&#45;1.17.6&#45;&gt;lzo2&#45;2.10p2</title>
<path fill="none" stroke="black" d="M1458.96,-501.54C1483.78,-498.48 1513.58,-494.82 1539.5,-491.63"/>
<polygon fill="black" stroke="black" points="1540.1,-495.09 1549.6,-490.39 1539.25,-488.14 1540.1,-495.09"/>
</g>
<!-- shared&#45;mime&#45;info&#45;2.2&#45;&gt;libxml&#45;2.9.13 -->
<g id="edge35" class="edge">
<title>shared&#45;mime&#45;info&#45;2.2&#45;&gt;libxml&#45;2.9.13</title>
<path fill="none" stroke="black" d="M1500.16,-640.02C1564.65,-641.41 1648.94,-643.22 1707.69,-644.49"/>
<polygon fill="black" stroke="black" points="1707.91,-647.99 1717.98,-644.71 1708.06,-640.99 1707.91,-647.99"/>
</g>
<!-- shared&#45;mime&#45;info&#45;2.2&#45;&gt;glib2&#45;2.72.1 -->
<g id="edge36" class="edge">
<title>shared&#45;mime&#45;info&#45;2.2&#45;&gt;glib2&#45;2.72.1</title>
<path fill="none" stroke="black" d="M1425.93,-620.11C1446.38,-600.64 1478.48,-567.86 1500.29,-535 1521.39,-503.18 1519.39,-491.24 1536.29,-457 1553,-423.15 1573.44,-384.77 1586.95,-359.8"/>
<polygon fill="black" stroke="black" points="1590.07,-361.38 1591.77,-350.92 1583.92,-358.04 1590.07,-361.38"/>
</g>
<!-- gtk+3&#45;3.24.33 -->
<g id="node31" class="node">
<title>gtk+3&#45;3.24.33</title>
<ellipse fill="none" stroke="black" cx="224.48" cy="-360" rx="64.99" ry="18"/>
<text text-anchor="middle" x="224.48" y="-356.3" font-family="Helvetica,Arial,sans-serif" font-size="14.00">gtk+3&#45;3.24.33</text>
</g>
<!-- gtk+3&#45;3.24.33&#45;&gt;adwaita&#45;icon&#45;theme&#45;42.0 -->
<g id="edge37" class="edge">
<title>gtk+3&#45;3.24.33&#45;&gt;adwaita&#45;icon&#45;theme&#45;42.0</title>
<path fill="none" stroke="black" d="M236.77,-377.92C253.28,-402.68 286.33,-447.1 325.48,-472 334.68,-477.85 345,-482.67 355.5,-486.64"/>
<polygon fill="black" stroke="black" points="354.57,-490.03 365.17,-490.05 356.9,-483.42 354.57,-490.03"/>
</g>
<!-- gtk+3&#45;3.24.33&#45;&gt;gtk&#45;update&#45;icon&#45;cache&#45;3.24.33 -->
<g id="edge38" class="edge">
<title>gtk+3&#45;3.24.33&#45;&gt;gtk&#45;update&#45;icon&#45;cache&#45;3.24.33</title>
<path fill="none" stroke="black" d="M230.03,-378.19C240.17,-414.5 268.38,-495.5 325.48,-531 413.68,-585.83 536.58,-583.65 618.65,-573.71"/>
<polygon fill="black" stroke="black" points="619.22,-577.17 628.7,-572.43 618.34,-570.22 619.22,-577.17"/>
</g>
<!-- gtk+3&#45;3.24.33&#45;&gt;gdk&#45;pixbuf&#45;2.42.8 -->
<g id="edge43" class="edge">
<title>gtk+3&#45;3.24.33&#45;&gt;gdk&#45;pixbuf&#45;2.42.8</title>
<path fill="none" stroke="black" d="M269.04,-373.26C286.49,-378.29 306.83,-383.81 325.48,-388 657.36,-462.63 749.59,-435.74 1079.92,-517 1100.71,-522.11 1123.2,-529.08 1142.69,-535.58"/>
<polygon fill="black" stroke="black" points="1141.7,-538.94 1152.29,-538.83 1143.94,-532.31 1141.7,-538.94"/>
</g>
<!-- gtk+3&#45;3.24.33&#45;&gt;pango&#45;1.50.7 -->
<g id="edge44" class="edge">
<title>gtk+3&#45;3.24.33&#45;&gt;pango&#45;1.50.7</title>
<path fill="none" stroke="black" d="M287.82,-364.32C426.52,-373.94 759.84,-397.04 905.48,-407.14"/>
<polygon fill="black" stroke="black" points="905.42,-410.64 915.64,-407.84 905.91,-403.66 905.42,-410.64"/>
</g>
<!-- gtk+3&#45;3.24.33&#45;&gt;hicolor&#45;icon&#45;theme&#45;0.17 -->
<g id="edge45" class="edge">
<title>gtk+3&#45;3.24.33&#45;&gt;hicolor&#45;icon&#45;theme&#45;0.17</title>
<path fill="none" stroke="black" d="M228.73,-378.03C237.03,-418.71 262.95,-518.06 325.48,-569 480.92,-695.64 721.91,-724.72 862.68,-730.22"/>
<polygon fill="black" stroke="black" points="862.93,-733.73 873.05,-730.59 863.18,-726.73 862.93,-733.73"/>
</g>
<!-- gtk+3&#45;3.24.33&#45;&gt;at&#45;spi2&#45;atk&#45;2.38.0 -->
<g id="edge39" class="edge">
<title>gtk+3&#45;3.24.33&#45;&gt;at&#45;spi2&#45;atk&#45;2.38.0</title>
<path fill="none" stroke="black" d="M255.62,-343.97C274.99,-334.52 301.02,-323.4 325.48,-318 607.77,-255.69 953.97,-268.71 1110.41,-279.21"/>
<polygon fill="black" stroke="black" points="1110.22,-282.71 1120.44,-279.9 1110.7,-275.73 1110.22,-282.71"/>
</g>
<!-- gtk+3&#45;3.24.33&#45;&gt;glib2&#45;2.72.1 -->
<g id="edge40" class="edge">
<title>gtk+3&#45;3.24.33&#45;&gt;glib2&#45;2.72.1</title>
<path fill="none" stroke="black" d="M286.13,-354.2C377.25,-346 554.92,-332 706.25,-332 706.25,-332 706.25,-332 1196.21,-332 1315.76,-332 1455.15,-332.44 1535.4,-332.74"/>
<polygon fill="black" stroke="black" points="1535.83,-336.24 1545.85,-332.78 1535.86,-329.24 1535.83,-336.24"/>
</g>
<!-- gtk+3&#45;3.24.33&#45;&gt;dconf&#45;0.40.0 -->
<g id="edge41" class="edge">
<title>gtk+3&#45;3.24.33&#45;&gt;dconf&#45;0.40.0</title>
<path fill="none" stroke="black" d="M240.77,-342.33C258.82,-322.82 290.81,-292.27 325.48,-278 428.75,-235.48 560.69,-233.29 639.04,-236.79"/>
<polygon fill="black" stroke="black" points="639.11,-240.3 649.27,-237.3 639.45,-233.31 639.11,-240.3"/>
</g>
<!-- gtk+3&#45;3.24.33&#45;&gt;desktop&#45;file&#45;utils&#45;0.26 -->
<g id="edge42" class="edge">
<title>gtk+3&#45;3.24.33&#45;&gt;desktop&#45;file&#45;utils&#45;0.26</title>
<path fill="none" stroke="black" d="M237.4,-342.06C254.9,-316.43 289.42,-268.63 325.48,-234 347.03,-213.3 374.28,-193.5 395.87,-179.03"/>
<polygon fill="black" stroke="black" points="398.03,-181.79 404.44,-173.36 394.17,-175.95 398.03,-181.79"/>
</g>
<!-- firefox&#45;99.0.1 -->
<g id="node32" class="node">
<title>firefox&#45;99.0.1</title>
<ellipse fill="none" stroke="black" cx="61.74" cy="-110" rx="61.99" ry="18"/>
<text text-anchor="middle" x="61.74" y="-106.3" font-family="Helvetica,Arial,sans-serif" font-size="14.00">firefox&#45;99.0.1</text>
</g>
<!-- firefox&#45;99.0.1&#45;&gt;desktop&#45;file&#45;utils&#45;0.26 -->
<g id="edge46" class="edge">
<title>firefox&#45;99.0.1&#45;&gt;desktop&#45;file&#45;utils&#45;0.26</title>
<path fill="none" stroke="black" d="M103.75,-123.43C120.81,-128.49 140.93,-133.8 159.49,-137 215.1,-146.59 277.88,-151.37 329.19,-153.74"/>
<polygon fill="black" stroke="black" points="329.15,-157.25 339.29,-154.19 329.45,-150.25 329.15,-157.25"/>
</g>
<!-- firefox&#45;99.0.1&#45;&gt;gtk+3&#45;3.24.33 -->
<g id="edge48" class="edge">
<title>firefox&#45;99.0.1&#45;&gt;gtk+3&#45;3.24.33</title>
<path fill="none" stroke="black" d="M74.3,-127.98C102.28,-171.49 173.75,-282.64 206.55,-333.67"/>
<polygon fill="black" stroke="black" points="203.68,-335.66 212.03,-342.18 209.56,-331.88 203.68,-335.66"/>
</g>
<!-- icu4c&#45;71.1v0 -->
<g id="node33" class="node">
<title>icu4c&#45;71.1v0</title>
<ellipse fill="none" stroke="black" cx="224.48" cy="-18" rx="60.39" ry="18"/>
<text text-anchor="middle" x="224.48" y="-14.3" font-family="Helvetica,Arial,sans-serif" font-size="14.00">icu4c&#45;71.1v0</text>
</g>
<!-- firefox&#45;99.0.1&#45;&gt;icu4c&#45;71.1v0 -->
<g id="edge47" class="edge">
<title>firefox&#45;99.0.1&#45;&gt;icu4c&#45;71.1v0</title>
<path fill="none" stroke="black" d="M87.83,-93.57C107.14,-81.13 134.64,-63.88 159.49,-50 166.89,-45.86 174.9,-41.66 182.66,-37.71"/>
<polygon fill="black" stroke="black" points="184.24,-40.84 191.61,-33.22 181.1,-34.58 184.24,-40.84"/>
</g>
<!-- nspr&#45;4.33p0 -->
<g id="node34" class="node">
<title>nspr&#45;4.33p0</title>
<ellipse fill="none" stroke="black" cx="433.37" cy="-64" rx="57.69" ry="18"/>
<text text-anchor="middle" x="433.37" y="-60.3" font-family="Helvetica,Arial,sans-serif" font-size="14.00">nspr&#45;4.33p0</text>
</g>
<!-- firefox&#45;99.0.1&#45;&gt;nspr&#45;4.33p0 -->
<g id="edge49" class="edge">
<title>firefox&#45;99.0.1&#45;&gt;nspr&#45;4.33p0</title>
<path fill="none" stroke="black" d="M103.75,-96.57C120.81,-91.51 140.93,-86.2 159.49,-83 229.1,-70.99 309.94,-66.52 365.46,-64.89"/>
<polygon fill="black" stroke="black" points="365.62,-68.38 375.52,-64.61 365.43,-61.39 365.62,-68.38"/>
</g>
<!-- nss&#45;3.77 -->
<g id="node35" class="node">
<title>nss&#45;3.77</title>
<ellipse fill="none" stroke="black" cx="224.48" cy="-110" rx="44.39" ry="18"/>
<text text-anchor="middle" x="224.48" y="-106.3" font-family="Helvetica,Arial,sans-serif" font-size="14.00">nss&#45;3.77</text>
</g>
<!-- firefox&#45;99.0.1&#45;&gt;nss&#45;3.77 -->
<g id="edge50" class="edge">
<title>firefox&#45;99.0.1&#45;&gt;nss&#45;3.77</title>
<path fill="none" stroke="black" d="M123.51,-110C138.83,-110 155.15,-110 170.07,-110"/>
<polygon fill="black" stroke="black" points="170.15,-113.5 180.15,-110 170.15,-106.5 170.15,-113.5"/>
</g>
<!-- nss&#45;3.77&#45;&gt;sqlite3&#45;3.38.3 -->
<g id="edge51" class="edge">
<title>nss&#45;3.77&#45;&gt;sqlite3&#45;3.38.3</title>
<path fill="none" stroke="black" d="M268.91,-110C353.21,-110 544.95,-110 706.25,-110 706.25,-110 706.25,-110 1603.58,-110 1726.28,-110 1866.28,-150.55 1938.56,-174.62"/>
<polygon fill="black" stroke="black" points="1937.71,-178.03 1948.3,-177.9 1939.94,-171.39 1937.71,-178.03"/>
</g>
<!-- nss&#45;3.77&#45;&gt;nspr&#45;4.33p0 -->
<g id="edge52" class="edge">
<title>nss&#45;3.77&#45;&gt;nspr&#45;4.33p0</title>
<path fill="none" stroke="black" d="M263.91,-101.46C295.42,-94.45 340.47,-84.43 376.05,-76.52"/>
<polygon fill="black" stroke="black" points="376.81,-79.94 385.82,-74.35 375.29,-73.1 376.81,-79.94"/>
</g>
<!-- harfbuzz&#45;4.2.1&#45;&gt;cairo&#45;1.17.6 -->
<g id="edge57" class="edge">
<title>harfbuzz&#45;4.2.1&#45;&gt;cairo&#45;1.17.6</title>
<path fill="none" stroke="black" d="M1251.18,-480.03C1280.17,-485.32 1315.75,-491.82 1345.33,-497.22"/>
<polygon fill="black" stroke="black" points="1345.05,-500.73 1355.52,-499.08 1346.31,-493.84 1345.05,-500.73"/>
</g>
<!-- graphite2&#45;1.3.14 -->
<g id="node37" class="node">
<title>graphite2&#45;1.3.14</title>
<ellipse fill="none" stroke="black" cx="1405.39" cy="-416" rx="74.99" ry="18"/>
<text text-anchor="middle" x="1405.39" y="-412.3" font-family="Helvetica,Arial,sans-serif" font-size="14.00">graphite2&#45;1.3.14</text>
</g>
<!-- harfbuzz&#45;4.2.1&#45;&gt;graphite2&#45;1.3.14 -->
<g id="edge58" class="edge">
<title>harfbuzz&#45;4.2.1&#45;&gt;graphite2&#45;1.3.14</title>
<path fill="none" stroke="black" d="M1243.97,-457.61C1273.65,-449.91 1312.08,-439.95 1343.88,-431.7"/>
<polygon fill="black" stroke="black" points="1345.15,-434.98 1353.95,-429.08 1343.39,-428.21 1345.15,-434.98"/>
</g>
</g>
</svg>
